<svg width="16" height="16" viewBox="0 0 16 16" fill="none" xmlns="http://www.w3.org/2000/svg">
<path d="M14.9037 4.41576L14.8919 4.39529C14.8755 4.36126 14.8565 4.32863 14.8354 4.29763L12.6095 0.449407C12.4492 0.172219 12.1507 0 11.8305 0H4.16993C3.84912 0 3.55037 0.172625 3.39018 0.450532L1.12799 4.3751C1.10764 4.41042 1.09299 4.44735 1.08258 4.48492C1.05067 4.57095 1.03314 4.66392 1.03314 4.76088V14.8973C1.03314 15.5053 1.5278 16 2.1358 16H13.8641C14.4721 16 14.9667 15.5053 14.9667 14.8973V4.72373C14.9667 4.7101 14.9663 4.6966 14.9656 4.68313C14.972 4.59295 14.9524 4.49995 14.9037 4.41576ZM8.48497 0.937846H11.8086L13.5597 3.96513H8.48497V0.937846ZM4.19177 0.937846H7.54712V3.96513H2.4468L4.19177 0.937846ZM14.0289 14.8973C14.0289 14.9882 13.955 15.0622 13.8641 15.0622H2.13583C2.04496 15.0622 1.97102 14.9882 1.97102 14.8973V4.90298H14.0289V14.8973V14.8973Z" fill="white"/>
<path d="M11.9273 7.71231H4.07255C3.81358 7.71231 3.60364 7.92225 3.60364 8.18122C3.60364 8.44019 3.81358 8.65013 4.07255 8.65013H11.9273C12.1863 8.65013 12.3962 8.44019 12.3962 8.18122C12.3963 7.92228 12.1863 7.71231 11.9273 7.71231Z" fill="white"/>
<path d="M10.6769 11.4322H5.32303C5.06406 11.4322 4.85413 11.6422 4.85413 11.9011C4.85413 12.1601 5.06406 12.37 5.32303 12.37H10.6769C10.9359 12.37 11.1458 12.1601 11.1458 11.9011C11.1458 11.6422 10.9359 11.4322 10.6769 11.4322Z" fill="white"/>
<path d="M9.62687 9.51364H6.37302C6.11405 9.51364 5.90411 9.72358 5.90411 9.98255C5.90411 10.2415 6.11405 10.4515 6.37302 10.4515H9.62687C9.88584 10.4515 10.0958 10.2415 10.0958 9.98255C10.0958 9.72361 9.88584 9.51364 9.62687 9.51364Z" fill="white"/>
</svg>
