<svg width="16" height="16" viewBox="0 0 16 16" fill="none" xmlns="http://www.w3.org/2000/svg">
<path d="M5.1875 13.125H4.25C3.99112 13.125 3.78125 13.3349 3.78125 13.5938C3.78125 13.8526 3.99112 14.0625 4.25 14.0625H5.1875C5.44638 14.0625 5.65625 13.8526 5.65625 13.5938C5.65625 13.3349 5.44638 13.125 5.1875 13.125Z" fill="white"/>
<path d="M13.1562 10.7536V8.18525C13.7161 7.86053 14.0938 7.25497 14.0938 6.5625C14.0938 5.86797 13.7139 5.26087 13.1513 4.93687C13.0359 2.19509 10.7697 0 8 0C5.23034 0 2.96409 2.19509 2.84872 4.93687C2.28612 5.26087 1.90625 5.86797 1.90625 6.5625C1.90625 7.25497 2.28387 7.86053 2.84375 8.18525V10.7537C1.70931 11.2929 0.96875 12.4439 0.96875 13.7204V15.5312C0.96875 15.7901 1.17862 16 1.4375 16H14.5625C14.8214 16 15.0312 15.7901 15.0312 15.5312V13.7197C15.0312 12.4434 14.2907 11.2925 13.1562 10.7536ZM12.2188 5.625C12.7357 5.625 13.1562 6.04556 13.1562 6.5625C13.1562 7.07944 12.7357 7.5 12.2188 7.5H11.9774C12.1335 7.05994 12.2188 6.58663 12.2188 6.09375V5.625ZM8 9.375C6.19072 9.375 4.71875 7.90303 4.71875 6.09375V5.625H5.90369C6.62116 5.625 7.323 5.42562 7.93334 5.04841C8.23397 4.86259 8.50594 4.63766 8.74288 4.3805C9.13744 5.12031 9.91716 5.625 10.8125 5.625H11.2812V5.74841L10.7998 6.27163C10.0814 7.05228 9.06088 7.5 8 7.5C7.74112 7.5 7.53125 7.70987 7.53125 7.96875C7.53125 8.22763 7.74112 8.4375 8 8.4375C9.11244 8.4375 10.1892 8.04244 11.0361 7.33769C10.545 8.53191 9.36922 9.375 8 9.375ZM9.928 11.1771C9.49591 11.8024 8.78059 12.1875 8 12.1875C7.21941 12.1875 6.50409 11.8024 6.072 11.1771C6.15791 11.166 6.49159 11.156 6.57912 10.8137L6.75522 10.125C7.14884 10.2468 7.56688 10.3125 8 10.3125C8.43312 10.3125 8.85116 10.2468 9.24478 10.125L9.42087 10.8137C9.46841 10.9995 9.62441 11.1377 9.81466 11.1624L9.928 11.1771ZM5.88525 9.743L5.74956 10.2736L3.78125 10.529V8.4375H4.49394C4.85188 8.97119 5.32828 9.41897 5.88525 9.743ZM11.5061 8.4375H12.2188V10.5291L10.2504 10.2736L10.1147 9.743C10.6717 9.41897 11.1482 8.97119 11.5061 8.4375ZM8 0.9375C10.1678 0.9375 11.9586 2.58109 12.1926 4.6875H10.8125C10.0371 4.6875 9.40625 4.05666 9.40625 3.28125C9.40625 3.06384 9.25678 2.875 9.04519 2.82503C8.83353 2.77506 8.61544 2.87716 8.51822 3.07159C8.01988 4.06834 7.01803 4.6875 5.90369 4.6875H3.80744C4.04137 2.58109 5.83222 0.9375 8 0.9375ZM3.78125 5.625V6.09375C3.78125 6.58663 3.8665 7.05994 4.02256 7.5H3.78125C3.26431 7.5 2.84375 7.07944 2.84375 6.5625C2.84375 6.04556 3.26431 5.625 3.78125 5.625ZM14.0938 15.0625H1.90625V13.7204C1.90625 12.7379 2.52006 11.859 3.43841 11.5188L5.06337 11.308C5.61656 12.4179 6.74838 13.125 8 13.125C9.25162 13.125 10.3834 12.4179 10.9366 11.308L12.5623 11.5191C13.4803 11.8591 14.0938 12.7376 14.0938 13.7197V15.0625Z" fill="white"/>
</svg>
