<svg width="16" height="16" viewBox="0 0 16 16" fill="none" xmlns="http://www.w3.org/2000/svg">
<g clip-path="url(#clip0)">
<path d="M15.5313 15.0625H1.60039L2.67124 13.9917H4.48539C4.67707 13.9917 4.84943 13.875 4.9206 13.697L6.66492 9.33616L8.17062 10.8419C8.28205 10.9533 8.44191 11.0013 8.59633 10.9696C8.75068 10.9379 8.87881 10.8308 8.93729 10.6845L10.6816 6.32374L12.1873 7.82941C12.3022 7.94427 12.4684 7.99141 12.6265 7.95415C12.7846 7.91683 12.9121 7.80028 12.9635 7.64618L14.9718 1.62117C15.0537 1.37557 14.921 1.11011 14.6754 1.02824C14.4297 0.94639 14.1643 1.07913 14.0824 1.3247L12.3139 6.63015L10.8419 5.15814C10.7305 5.04671 10.5705 4.99865 10.4162 5.03043C10.2618 5.06211 10.1337 5.1692 10.0752 5.31549L8.3309 9.67629L6.8252 8.17059C6.71381 8.0592 6.55391 8.0112 6.3995 8.04288C6.24514 8.07456 6.11702 8.18165 6.05854 8.32794L4.16805 13.0541H2.47711C2.35278 13.0541 2.23358 13.1035 2.14568 13.1914L0.93753 14.3996V0.468765C0.937498 0.209873 0.727625 0 0.468765 0C0.209905 0 0 0.209873 0 0.468765V15.5313C0 15.7901 0.209873 16 0.468765 16H15.5313C15.7901 16 16 15.7902 16 15.5313C16 15.2724 15.7901 15.0625 15.5313 15.0625V15.0625Z" fill="white"/>
</g>
<defs>
<clipPath id="clip0">
<rect width="16" height="16" fill="white"/>
</clipPath>
</defs>
</svg>
