<svg width="16" height="16" viewBox="0 0 16 16" fill="none" xmlns="http://www.w3.org/2000/svg">
<g clip-path="url(#clip0)">
<path d="M5.70862 7.41028H6.69759C6.95646 7.41028 7.16634 7.2004 7.16634 6.94153C7.16634 6.68265 6.95646 6.47278 6.69759 6.47278H5.70862C5.44974 6.47278 5.23987 6.68265 5.23987 6.94153C5.23987 7.2004 5.44974 7.41028 5.70862 7.41028Z" fill="white"/>
<path d="M11.7379 7.56334C11.262 7.51666 10.8906 7.09713 10.8906 6.60306V6.11953C10.8906 5.49722 10.4987 4.96666 9.95312 4.76959V3.75C9.95312 1.68225 8.27087 0 6.20312 0C4.13538 0 2.45312 1.68225 2.45312 3.75V4.76656C1.90753 4.96006 1.51562 5.48109 1.51562 6.09219V6.56647C1.51562 7.08341 1.09506 7.50397 0.578125 7.50397C0.31925 7.50397 0.109375 7.71384 0.109375 7.97272C0.109375 8.73884 0.4795 9.42016 1.05034 9.84722C0.48125 10.2752 0.1125 10.9559 0.1125 11.7212V15.5312C0.1125 15.7901 0.322375 16 0.58125 16H11.6719C13.9981 16 15.8906 14.1075 15.8906 11.7812C15.8906 9.47709 14.0338 7.59875 11.7379 7.56334V7.56334ZM3.85938 5.298C4.33559 5.06394 4.90597 4.68119 5.25259 4.09316C6.30691 5.042 7.6575 5.40316 8.54688 5.54063V5.9375C8.54688 7.22984 7.49547 8.28125 6.20312 8.28125C4.91078 8.28125 3.85938 7.22984 3.85938 5.9375V5.298ZM5.00328 8.99159C5.37509 9.13816 5.77988 9.21875 6.20312 9.21875C6.64553 9.21875 7.06766 9.13053 7.45312 8.97112V11.2493L5.00328 11.2507V8.99159ZM8.38734 8.38384C9.67756 7.23066 9.46072 5.74531 9.48438 5.625C9.74284 5.625 9.95312 5.84687 9.95312 6.11953C9.98278 6.39806 9.82094 7.08725 10.3512 7.77447C9.57334 8.0315 8.89509 8.50909 8.39062 9.13288V8.4375C8.39062 8.41934 8.38934 8.4015 8.38734 8.38384ZM3.39062 3.75C3.39062 2.19919 4.65231 0.9375 6.20312 0.9375C7.75394 0.9375 9.01562 2.19919 9.01562 3.75V4.65397C8.11459 4.55375 6.14881 4.15516 5.19875 2.57278C5.06572 2.35119 4.77784 2.27872 4.55556 2.41216C4.33359 2.54544 4.26172 2.83338 4.39497 3.05534C4.4515 3.14947 4.5105 3.23997 4.57194 3.32731C4.39328 3.90812 3.83203 4.27606 3.39059 4.48306V3.75H3.39062ZM2.45312 6.56647V6.09219C2.45312 5.83372 2.66341 5.62344 2.92188 5.62344C2.94338 5.72991 2.72263 7.26997 4.06641 8.42559C4.06541 8.46566 4.06597 9.04481 4.06581 9.375H2.44916C1.81266 9.375 1.27384 8.94869 1.10319 8.36666C1.88234 8.13903 2.45312 7.41819 2.45312 6.56647ZM1.05 11.7212C1.05 10.9458 1.68084 10.3149 2.45625 10.3149H4.06578V11.6003C3.18 13.2638 3.12828 13.2301 3.12828 13.4393V15.0625H1.05V11.7212ZM4.06578 15.0625V13.5588L4.81294 12.1883L7.47269 12.1868C7.58372 13.3453 8.16525 14.3684 9.02347 15.0625H4.06578ZM11.6719 15.0625C9.86259 15.0625 8.39062 13.5905 8.39062 11.7812C8.39062 9.97197 9.86259 8.5 11.6719 8.5C13.4812 8.5 14.9531 9.97197 14.9531 11.7812C14.9531 13.5905 13.4812 15.0625 11.6719 15.0625Z" fill="white"/>
<path d="M12.4537 11.5065C12.0623 11.2015 11.543 11.1397 11.4439 10.9608C11.4201 10.9179 11.4473 10.8284 11.5168 10.7817C11.62 10.7123 11.8577 10.7411 11.9348 10.8122C12.1251 10.9878 12.4217 10.9757 12.5972 10.7855C12.7727 10.5952 12.7607 10.2986 12.5704 10.1231C12.4459 10.0083 12.2905 9.92394 12.1218 9.87122C12.1177 9.61588 11.9098 9.41003 11.6534 9.41003C11.3946 9.41003 11.1847 9.61991 11.1847 9.87878V9.90238C10.5858 10.1488 10.3215 10.8693 10.6238 11.4151C10.8361 11.7984 11.2018 11.9428 11.4956 12.0589C11.6898 12.1356 12.0149 12.2513 11.9918 12.4589C11.9809 12.5563 11.9029 12.6575 11.8022 12.7049C11.6468 12.778 11.3305 12.7303 11.1387 12.6048C10.9221 12.463 10.6315 12.5238 10.4898 12.7405C10.3481 12.9571 10.4088 13.2476 10.6254 13.3894C10.7799 13.4904 10.9747 13.5732 11.1847 13.6232V13.6311C11.1847 13.89 11.3946 14.0999 11.6534 14.0999C11.9123 14.0999 12.1222 13.89 12.1222 13.6311V13.5866C12.5457 13.4243 12.8716 13.0281 12.9235 12.5628C12.9685 12.1593 12.7972 11.7743 12.4537 11.5065V11.5065Z" fill="white"/>
</g>
<defs>
<clipPath id="clip0">
<rect width="16" height="16" fill="white"/>
</clipPath>
</defs>
</svg>
